HIERARCHY
ROOT Hips
{
	OFFSET 0.000000 0.000000 0.000000
	CHANNELS 6 Xposition Yposition Zposition Zrotation Yrotation Xrotation 
	JOINT LHipJoint
	{
		OFFSET 0.000000 0.000000 0.000000
		CHANNELS 3 Zrotation Yrotation Xrotation
		JOINT LeftUpLeg
		{
			OFFSET 1.363060 -1.794630 0.839290
			CHANNELS 3 Zrotation Yrotation Xrotation
			JOINT LeftLeg
			{
				OFFSET 2.448110 -6.726130 0.000000
				CHANNELS 3 Zrotation Yrotation Xrotation
				JOINT LeftFoot
				{
					OFFSET 2.562200 -7.039590 0.000000
					CHANNELS 3 Zrotation Yrotation Xrotation
					JOINT LeftToeBase
					{
						OFFSET 0.157640 -0.433110 2.322550
						CHANNELS 3 Zrotation Yrotation Xrotation
						End Site
						{
							OFFSET 0.000000 0.000000 0.000000
						}
					}
				}
			}
		}
	}
	JOINT RHipJoint
	{
		OFFSET 0.000000 0.000000 0.000000
		CHANNELS 3 Zrotation Yrotation Xrotation
		JOINT RightUpLeg
		{
			OFFSET -1.305520 -1.794630 0.839290
			CHANNELS 3 Zrotation Yrotation Xrotation
			JOINT RightLeg
			{
				OFFSET -2.542530 -6.985550 0.000000
				CHANNELS 3 Zrotation Yrotation Xrotation
				JOINT RightFoot
				{
					OFFSET -2.568260 -7.056230 0.000000
					CHANNELS 3 Zrotation Yrotation Xrotation
					JOINT RightToeBase
					{
						OFFSET -0.164730 -0.452590 2.363150
						CHANNELS 3 Zrotation Yrotation Xrotation
						End Site
						{
							OFFSET 0.000000 0.000000 0.000000
						}
					}
				}
			}
		}
	}
	JOINT LowerBack
	{
		OFFSET 0.000000 0.000000 0.000000
		CHANNELS 3 Zrotation Yrotation Xrotation
		JOINT Spine
		{
			OFFSET 0.028270 2.035590 -0.193380
			CHANNELS 3 Zrotation Yrotation Xrotation
			JOINT Spine1
			{
				OFFSET 0.056720 2.048850 -0.042750
				CHANNELS 3 Zrotation Yrotation Xrotation
				JOINT Neck
				{
					OFFSET 0.000000 0.000000 0.000000
					CHANNELS 3 Zrotation Yrotation Xrotation
					JOINT Neck1
					{
						OFFSET -0.054170 1.746240 0.172020
						CHANNELS 3 Zrotation Yrotation Xrotation
						JOINT Head
						{
							OFFSET 0.104070 1.761360 -0.123970
							CHANNELS 3 Zrotation Yrotation Xrotation
							End Site
							{
								OFFSET 0.000000 0.000000 0.000000
							}
						}
					}
				}
				JOINT LeftShoulder
				{
					OFFSET 0.000000 0.000000 0.000000
					CHANNELS 3 Zrotation Yrotation Xrotation
					JOINT LeftArm
					{
						OFFSET 3.362410 1.200890 -0.311210
						CHANNELS 3 Zrotation Yrotation Xrotation
						JOINT LeftForeArm
						{
							OFFSET 4.983000 -0.000000 -0.000000
							CHANNELS 3 Zrotation Yrotation Xrotation
							JOINT LeftHand
							{
								OFFSET 3.483560 -0.000000 -0.000000
								CHANNELS 3 Zrotation Yrotation Xrotation
								JOINT LeftFingerBase
								{
									OFFSET 0.000000 0.000000 0.000000
									CHANNELS 3 Zrotation Yrotation Xrotation
									JOINT LeftHandIndex1
									{
										OFFSET 0.715260 -0.000000 -0.000000
										CHANNELS 3 Zrotation Yrotation Xrotation
										End Site
										{
											OFFSET 0.000000 0.000000 0.000000
										}
									}
								}
								JOINT LThumb
								{
									OFFSET 0.000000 0.000000 0.000000
									CHANNELS 3 Zrotation Yrotation Xrotation
									End Site
									{
										OFFSET 0.000000 0.000000 0.000000
									}
								}
							}
						}
					}
				}
				JOINT RightShoulder
				{
					OFFSET 0.000000 0.000000 0.000000
					CHANNELS 3 Zrotation Yrotation Xrotation
					JOINT RightArm
					{
						OFFSET -3.136600 1.374050 -0.404650
						CHANNELS 3 Zrotation Yrotation Xrotation
						JOINT RightForeArm
						{
							OFFSET -5.241900 -0.000000 -0.000000
							CHANNELS 3 Zrotation Yrotation Xrotation
							JOINT RightHand
							{
								OFFSET -3.444170 -0.000000 -0.000000
								CHANNELS 3 Zrotation Yrotation Xrotation
								JOINT RightFingerBase
								{
									OFFSET 0.000000 0.000000 0.000000
									CHANNELS 3 Zrotation Yrotation Xrotation
									JOINT RightHandIndex1
									{
										OFFSET -0.622530 -0.000000 -0.000000
										CHANNELS 3 Zrotation Yrotation Xrotation
										End Site
										{
											OFFSET 0.000000 0.000000 0.000000
										}
									}
								}
								JOINT RThumb
								{
									OFFSET 0.000000 0.000000 0.000000
									CHANNELS 3 Zrotation Yrotation Xrotation
									End Site
									{
										OFFSET 0.000000 0.000000 0.000000
									}
								}
							}
						}
					}
				}
			}
		}
	}
}
MOTION
Frames: 8
Frame Time: 0.008333
-0.547614 18.185676 6.585875 -5.828732 2.114351 -4.445864 1.655499 3.899103 2.803687 -10.004677 -5.525380 0.050309 1.563587 7.691083 25.252550 0.689208 1.030666 -13.651255 8.333400 -16.359100 -53.755000 -3.413990 -3.767398 1.425137 3.181597 1.834916 -1.991748 0.036513 0.533536 1.370821 0.257351 -1.063994 5.718852 0.000000 0.000000 0.000000 6.465299 3.052778 1.849418 0.441456 3.957458 12.625785 -3.356803 1.926952 -14.635956 15.666470 6.209696 -28.063053 -8.728501 9.805698 41.852860 -2.367800 4.894400 13.706800 -0.044199 -6.542942 0.899060 -96.913608 17.766862 20.277226 28.131116 -37.510727 -8.799519 0.493923 1.057460 -17.712116 27.729364 -16.850743 -8.906700 -7.125000 0.000000 0.000000 -0.712500 10.003600 0.578000 -3.914295 11.568900 4.841846 108.994610 -20.533980 -4.526838 -28.858107 39.228211 -9.295854 -1.436227 -3.867041 -1.597439 -51.117831 -47.251487 38.752800 7.125000 0.000000 0.000000 -46.785400 -82.969300 41.431100 
-0.503687 18.192539 6.579306 -5.992960 1.860451 -4.663963 1.514256 3.925311 2.892176 -9.922872 -5.873053 0.449610 1.527972 7.664153 25.137868 0.630852 1.405471 -13.971030 8.251600 -16.301200 -53.463800 -3.546656 -3.783789 1.434263 3.142896 1.845315 -1.961551 0.039360 0.553603 1.378554 0.263534 -1.042719 5.723346 0.000000 0.000000 0.000000 6.777842 3.078177 2.025373 -0.919634 4.064240 13.230569 -2.965781 1.979448 -14.875952 16.422133 6.791357 -27.454478 -8.007153 10.276273 42.042076 -2.137200 5.305400 13.758000 0.171492 -6.481565 0.807957 -96.853079 17.544610 20.126883 28.159927 -37.558144 -8.816200 0.492413 1.055238 -17.771706 27.730586 -16.897571 -8.928500 -7.125000 0.000000 0.000000 -0.715600 9.954900 0.581100 -3.854412 11.560801 4.743351 109.049311 -20.450079 -4.310992 -28.917198 39.379070 -9.338459 -1.448553 -3.844276 -1.306440 -51.111092 -47.113756 38.685000 7.125000 0.000000 0.000000 -46.397500 -82.848100 40.980200 
-0.463192 18.200383 6.572246 -6.173141 1.688033 -4.929035 1.375549 3.954077 2.980433 -9.840377 -6.328074 0.907098 1.501148 7.647415 25.050054 0.610635 1.607777 -14.263436 8.135100 -16.217700 -53.047800 -3.678500 -3.794056 1.435984 3.104414 1.856624 -1.932148 0.042064 0.574108 1.386740 0.269838 -1.020870 5.727894 0.000000 0.000000 0.000000 7.218687 3.047913 2.295395 -2.293920 4.134864 13.779675 -2.638627 1.990010 -15.129021 17.303502 7.405654 -26.824117 -7.167033 10.736183 42.296066 -1.888200 5.746600 13.838500 0.400087 -6.409509 0.715038 -96.745912 17.311311 20.004412 28.153847 -37.572057 -8.810494 0.494257 1.048734 -17.584430 27.621308 -17.014833 -8.940400 -7.125000 0.000000 0.000000 -0.796600 9.850800 0.648600 -3.789376 11.561465 4.653351 109.191402 -20.379953 -4.224929 -29.041410 39.601543 -9.412553 -1.461434 -3.818820 -1.066745 -51.209452 -47.001556 38.733300 7.125000 0.000000 0.000000 -46.657800 -82.767500 41.153700 
-0.427992 18.211561 6.565481 -6.496545 1.567552 -5.186172 1.346413 4.002208 3.094503 -9.694865 -6.760933 1.268984 1.480128 7.622987 24.988001 0.566321 1.899253 -14.546540 8.079800 -16.177700 -52.849800 -3.694711 -3.815054 1.511943 3.081049 1.865018 -1.901470 0.042306 0.592637 1.392543 0.275293 -1.003040 5.735515 0.000000 0.000000 0.000000 7.201409 2.981013 2.171540 -2.498402 4.052609 14.775985 -2.487382 1.956394 -15.279708 18.005619 8.075058 -26.283330 -6.256112 11.283229 42.489564 -1.571000 6.218400 13.937200 0.521721 -6.312900 0.584035 -96.822529 16.947347 19.857236 28.153579 -37.597749 -8.815456 0.499359 1.038654 -17.402442 27.714562 -17.273242 -9.094800 -7.125000 0.000000 0.000000 -0.762200 9.559800 0.625100 -3.902026 11.581279 4.532193 109.031802 -20.205768 -3.822778 -29.103799 39.744532 -9.455960 -1.462328 -3.803811 -1.011501 -51.243204 -46.840002 38.687000 7.125000 0.000000 0.000000 -46.399900 -82.626100 40.806000 
-0.397400 18.224013 6.560970 -7.036267 1.555371 -5.617353 1.494497 4.111144 3.326636 -9.468325 -7.190601 1.628819 1.472496 7.564238 24.948135 0.511888 2.220997 -14.846054 8.072500 -16.172300 -52.823400 -3.511749 -3.878354 1.781328 3.069893 1.873015 -1.850012 0.038380 0.618764 1.397224 0.282608 -0.981827 5.753304 0.000000 0.000000 0.000000 6.357201 2.879489 1.083530 -0.663930 3.657161 17.336389 -2.620068 1.868293 -15.289637 18.384183 8.875623 -25.718953 -5.667943 12.184303 42.042777 -1.264100 6.743600 13.940800 0.548798 -6.171775 0.317644 -97.349100 16.120326 19.634884 28.127145 -37.649323 -8.815722 0.502514 1.029044 -17.191964 27.996878 -17.453347 -9.289300 -7.125000 0.000000 0.000000 -0.596400 9.317800 0.492000 -4.436484 11.592776 4.269926 108.395545 -19.632491 -3.051344 -29.060892 39.815527 -9.460406 -1.454760 -3.805110 -1.093379 -51.181541 -46.652082 38.523800 7.125000 0.000000 0.000000 -45.537800 -82.434100 39.871100 
-0.371809 18.234211 6.558421 -7.338658 1.533211 -5.677739 1.483597 4.118696 3.331388 -9.295339 -7.487906 1.819558 1.453375 7.560293 24.902938 0.483064 2.424584 -15.059769 8.033900 -16.144100 -52.684800 -3.527607 -3.868280 1.762133 3.066664 1.874556 -1.850281 0.038686 0.619931 1.398344 0.282921 -0.980103 5.752882 0.000000 0.000000 0.000000 6.574576 2.849367 1.377246 -0.869297 3.678152 17.181456 -2.634582 1.841079 -15.300576 19.085467 9.473576 -24.865669 -4.739747 12.676399 42.201210 -0.957300 7.201500 13.917800 0.551451 -6.125908 0.284604 -97.218900 16.211540 19.966344 28.207869 -37.706778 -8.860948 0.501308 1.031197 -17.162073 28.294691 -17.374601 -9.372100 -7.125000 0.000000 0.000000 -0.394700 9.345000 0.325400 -4.413282 11.630697 4.242202 108.441584 -19.596573 -3.171037 -29.132673 39.908586 -9.499538 -1.449336 -3.801006 -1.210254 -51.189349 -46.519079 38.460700 7.125000 0.000000 0.000000 -45.221800 -82.313600 39.490500 
-0.352100 18.241663 6.557048 -7.563702 1.494252 -5.668951 1.477249 4.104448 3.276902 -9.152976 -7.583518 1.921027 1.440672 7.565313 24.869763 0.466974 2.518584 -15.121899 8.014200 -16.129700 -52.613800 -3.549389 -3.842736 1.691400 3.073125 1.872387 -1.866086 0.039179 0.612151 1.397011 0.280554 -0.986652 5.748199 0.000000 0.000000 0.000000 6.842892 2.847883 1.968004 -1.127667 3.776303 16.422177 -2.665859 1.836804 -15.295441 19.936862 9.995829 -24.007906 -4.081040 13.128453 42.521897 -0.750800 7.614600 13.937100 0.477146 -6.097593 0.301586 -96.951645 16.521045 20.531050 28.302291 -37.745983 -8.906140 0.499041 1.034477 -17.261043 28.476842 -17.300299 -9.409900 -7.125000 0.000000 0.000000 -0.269100 9.389500 0.221600 -4.317963 11.683026 4.275491 108.591803 -19.704624 -3.522170 -29.244091 40.007508 -9.551861 -1.438675 -3.800265 -1.446352 -51.227922 -46.421861 38.445500 7.125000 0.000000 0.000000 -45.156000 -82.232500 39.367500 
-0.338471 18.246957 6.555872 -7.740030 1.516243 -5.733915 1.500286 4.111493 3.274918 -9.045937 -7.644056 2.001489 1.434156 7.559500 24.847853 0.439632 2.626054 -15.115106 8.038800 -16.147700 -52.702400 -3.531890 -3.836891 1.689739 3.075965 1.872140 -1.868896 0.038864 0.610938 1.396776 0.280038 -0.987844 5.747854 0.000000 0.000000 0.000000 6.896404 2.843466 2.160313 -0.977923 3.787607 16.316896 -2.713967 1.827933 -15.234032 20.781793 10.508477 -23.095503 -3.748152 13.673561 42.424516 -0.646200 7.995800 13.876700 0.419434 -6.068510 0.259884 -96.759714 16.606337 21.076015 28.344635 -37.749069 -8.919252 0.498313 1.034517 -17.320952 28.484739 -17.321607 -9.423200 -7.125000 0.000000 0.000000 -0.266500 9.365100 0.219600 -4.356394 11.716055 4.244251 108.618057 -19.674599 -3.633968 -29.323675 40.101938 -9.590261 -1.415649 -3.815725 -1.840285 -51.151180 -46.369969 38.336700 7.125000 0.000000 0.000000 -44.608100 -82.168700 38.823400 
